Coordinates
version=1
nRows=4
nColumns=114
inDegrees=yes

Units are S.I. units (second, meters, Newtons, ...)
If the header above contains a line with 'inDegrees', this indicates whether rotational values are in degrees (yes) or radians (no).

endheader 
time	pelvis_tilt	pelvis_list	pelvis_rotation	pelvis_tx	pelvis_ty	pelvis_tz	hip_flexion_l	hip_adduction_l	hip_rotation_l	hip_flexion_r	hip_adduction_r	hip_rotation_r	knee_angle_l	knee_angle_r	ankle_angle_l	ankle_angle_r	subtalar_angle_l	subtalar_angle_r	mtp_angle_l	mtp_angle_r	lumbar_extension	lumbar_bending	lumbar_rotation	arm_flex_l	arm_add_l	arm_rot_l	arm_flex_r	arm_add_r	arm_rot_r	elbow_flex_l	elbow_flex_r	pro_sup_l	pro_sup_r	addbrev_l/activation	addlong_l/activation	addmagDist_l/activation	addmagIsch_l/activation	addmagMid_l/activation	addmagProx_l/activation	bflh_l/activation	bfsh_l/activation	edl_l/activation	ehl_l/activation	fdl_l/activation	fhl_l/activation	gaslat_l/activation	gasmed_l/activation	glmax1_l/activation	glmax2_l/activation	glmax3_l/activation	glmed1_l/activation	glmed2_l/activation	glmed3_l/activation	glmin1_l/activation	glmin2_l/activation	glmin3_l/activation	grac_l/activation	iliacus_l/activation	perbrev_l/activation	perlong_l/activation	piri_l/activation	psoas_l/activation	recfem_l/activation	sart_l/activation	semimem_l/activation	semiten_l/activation	soleus_l/activation	tfl_l/activation	tibant_l/activation	tibpost_l/activation	vasint_l/activation	vaslat_l/activation	vasmed_l/activation	addbrev_r/activation	addlong_r/activation	addmagDist_r/activation	addmagIsch_r/activation	addmagMid_r/activation	addmagProx_r/activation	bflh_r/activation	bfsh_r/activation	edl_r/activation	ehl_r/activation	fdl_r/activation	fhl_r/activation	gaslat_r/activation	gasmed_r/activation	glmax1_r/activation	glmax2_r/activation	glmax3_r/activation	glmed1_r/activation	glmed2_r/activation	glmed3_r/activation	glmin1_r/activation	glmin2_r/activation	glmin3_r/activation	grac_r/activation	iliacus_r/activation	perbrev_r/activation	perlong_r/activation	piri_r/activation	psoas_r/activation	recfem_r/activation	sart_r/activation	semimem_r/activation	semiten_r/activation	soleus_r/activation	tfl_r/activation	tibant_r/activation	tibpost_r/activation	vasint_r/activation	vaslat_r/activation	vasmed_r/activation	
          6.47040817	        -13.27901176	         -4.76019613	        361.60318631	         -1.88824903	          1.02904821	          0.20404776	         52.09740489	          0.21564655	        -10.54727465	          3.38177229	         -8.69771410	        -10.00801656	         94.15472660	         38.43841656	         14.45212179	         29.18445716	        -10.27232607	          7.81826481	         -9.31957481	        -10.03063537	        -17.96086503	          0.04596700	         10.57172779	       -395.14444314	        -28.86238670	        -35.14054237	       -131.23950191	        170.65194252	       -172.22561776	         15.47617530	         99.72207292	         69.72899713	        101.65856164	          0.05940696	          0.31443216	          0.07724885	          0.07408188	          0.06618838	          0.06305113	          0.22397157	          0.16653610	          0.57441017	          0.40622526	          0.04672036	          0.02493560	          0.01001808	          0.03112153	          0.11960788	          0.25878713	          0.26339301	          0.01002638	          0.01005119	          0.01016204	          0.01079264	          0.01014100	          0.01026923	          0.11492450	          0.17375848	          0.07330903	          0.06327577	          0.39693615	          0.18578459	          0.26542669	          0.22857242	          0.03690853	          0.16946172	          0.01000894	          0.12251332	          0.39186130	          0.07442768	          0.12964824	          0.27744468	          0.15567933	          0.01452488	          0.17451026	          0.01001390	          0.01001458	          0.01001996	          0.41658569	          0.03855914	          0.27837403	          0.09092854	          0.07030456	          0.01845878	          0.10497869	          0.07551283	          0.04397867	          0.03430612	          0.01753435	          0.01996153	          0.01391354	          0.01865087	          0.06229005	          0.01006363	          0.05998307	          0.08940560	          0.20429470	          0.63566648	          0.01753903	          0.02051518	          0.44270438	          0.96642943	          0.73824045	          0.77776300	          0.09994993	          0.01001310	          0.02892911	          0.31555926	          0.17160710	          0.02953752	          0.01023819	          0.01009210	          0.01001923	
          6.48044219	        -12.93049889	         -2.70394465	        361.43221997	         -1.81873094	          1.03071085	          0.19758868	         55.51069806	          1.67696477	        -11.60650532	         -1.42323548	        -11.39374315	        -10.91273784	         91.59525165	         32.63227279	         17.17366212	         25.97972234	         -9.58482285	          9.62447534	         -8.28595950	         -8.89216669	        -17.21307908	         -3.25569870	         11.35366249	       -396.93537957	        -31.38641868	        -64.15205640	       -123.77920550	        169.75452861	       -169.99483007	         10.00346558	        101.94716360	         82.89483924	        102.78666817	          0.04947459	          0.26185116	          0.06433224	          0.06169510	          0.05512144	          0.05251417	          0.18651815	          0.13869061	          0.47835191	          0.33829328	          0.03891152	          0.02076997	          0.01004582	          0.02592050	          0.09962143	          0.21551623	          0.21934711	          0.01001638	          0.01005245	          0.01033899	          0.01003416	          0.01007087	          0.01025722	          0.09570755	          0.14470208	          0.06106357	          0.21237187	          0.47685212	          0.15471716	          0.22104412	          0.19035262	          0.03073686	          0.14112371	          0.04686103	          0.10202701	          0.32632977	          0.06198180	          0.10799979	          0.23105887	          0.12966118	          0.01212024	          0.19554399	          0.01000972	          0.01000848	          0.01001619	          0.39743452	          0.03211113	          0.34479420	          0.07572345	          0.05855115	          0.08815725	          0.22249256	          0.16171204	          0.03662847	          0.02857132	          0.01460678	          0.01662530	          0.01484229	          0.02977247	          0.05190457	          0.01009943	          0.11087617	          0.08415126	          0.23920594	          0.56949356	          0.01460733	          0.01708504	          0.42495006	          0.98887492	          0.61478273	          0.88615434	          0.08323599	          0.01000980	          0.04026243	          0.26847677	          0.14290956	          0.06607277	          0.01191498	          0.01163539	          0.01002141	
          6.49047620	        -13.01781272	         -0.51640538	        360.78238843	         -1.74954889	          1.03029473	          0.19179870	         58.82819335	          2.67461145	        -13.28621634	         -5.26626553	        -14.17532799	        -11.43946249	         88.00714805	         26.83982310	         18.18919523	         21.87573083	        -10.92663941	         11.55970723	         -7.46020573	         -7.92242098	        -16.04582407	         -6.76026921	         12.00069327	       -400.11251552	        -34.79625489	       -102.41752024	       -114.98312626	        168.84224336	       -166.72459035	          3.82785433	        102.81359954	        105.61030043	        102.78718765	          0.04120350	          0.21806398	          0.05357743	          0.05138191	          0.04590627	          0.04374142	          0.15540601	          0.11550274	          0.39835832	          0.28172215	          0.03240590	          0.01730550	          0.01129913	          0.03421274	          0.34871079	          0.58806004	          0.18267012	          0.01002022	          0.01011879	          0.08031032	          0.01004235	          0.01009533	          0.01447258	          0.07970539	          0.12050471	          0.05652623	          0.33296521	          0.48339452	          0.12884500	          0.18408613	          0.15852332	          0.02559827	          0.11752675	          0.07063193	          0.09627506	          0.27175718	          0.05161677	          0.08995310	          0.19242080	          0.10798441	          0.01013187	          0.16285927	          0.01000887	          0.01000640	          0.01001541	          0.80026899	          0.02674145	          0.29051180	          0.06306082	          0.04876238	          0.07345393	          0.18529817	          0.13470199	          0.03089726	          0.02379547	          0.01217738	          0.01384896	          0.01537725	          0.02505008	          0.04323520	          0.01006291	          0.20059707	          0.11257884	          0.35225115	          0.47426849	          0.01216586	          0.01422851	          0.61657462	          0.99628961	          0.51197096	          0.83685460	          0.06931626	          0.01000922	          0.07230279	          0.22366984	          0.11901100	          0.05503258	          0.01126836	          0.01143196	          0.01002092	
          6.50051021	        -13.36217487	          1.70281905	        359.64092116	         -1.68030297	          1.02812077	          0.18700534	         61.78627271	          2.88494868	        -15.43949777	         -8.27685843	        -16.99240862	        -11.55517378	         83.46888231	         21.44811962	         16.89642524	         16.66279190	        -13.31719354	         14.01187988	         -6.72161222	         -7.01628348	        -14.56456468	        -10.46390865	         12.69035413	       -408.03502015	        -37.89564867	       -135.37888347	       -105.70366693	        167.92801117	       -163.07727449	          0.10916469	        102.86773518	        120.19064281	        102.21170628	          0.03431676	          0.18160047	          0.04463497	          0.04280931	          0.03823722	          0.03644342	          0.38272330	          0.09619294	          0.33174279	          0.23461210	          0.02773916	          0.01441673	          0.01003797	          0.19631682	          0.29278685	          0.53587610	          0.33931992	          0.01001879	          0.01029022	          0.06691653	          0.01003447	          0.01007638	          0.01221598	          0.06638279	          0.10035387	          0.11556754	          0.33846418	          0.40256284	          0.10729948	          0.15330449	          0.13201611	          0.11462008	          0.09789437	          0.05887999	          0.08017682	          0.22631073	          0.04400746	          0.07494404	          0.16748574	          0.08993761	          0.01038165	          0.21458657	          0.01001000	          0.01000619	          0.01002265	          0.93383659	          0.02226975	          0.33822567	          0.05251586	          0.04061033	          0.06117662	          0.15431396	          0.14276832	          0.02573782	          0.01981792	          0.01026890	          0.01154757	          0.01440465	          0.02088413	          0.03600867	          0.01005940	          0.23693464	          0.11937295	          0.51470369	          0.39498687	          0.01013310	          0.01184988	          0.51346541	          0.99875418	          0.42635265	          0.76645569	          0.05772444	          0.01001051	          0.15877867	          0.26377480	          0.09910890	          0.04582965	          0.01002825	          0.01009556	          0.01002081	
